<?xml version="1.0" encoding="UTF-8" standalone="no"?>
<svg
   xmlns:dc="http://purl.org/dc/elements/1.1/"
   xmlns:cc="http://creativecommons.org/ns#"
   xmlns:rdf="http://www.w3.org/1999/02/22-rdf-syntax-ns#"
   xmlns:svg="http://www.w3.org/2000/svg"
   xmlns="http://www.w3.org/2000/svg"
   xmlns:sodipodi="http://sodipodi.sourceforge.net/DTD/sodipodi-0.dtd"
   xmlns:inkscape="http://www.inkscape.org/namespaces/inkscape"
   version="1.0"
   width="1280.000000pt"
   height="797.000000pt"
   viewBox="0 0 1280.000000 797.000000"
   preserveAspectRatio="xMidYMid meet"
   id="svg28"
   sodipodi:docname="logo.svg"
   inkscape:version="0.92.3 (2405546, 2018-03-11)">
  <defs
     id="defs32" />
  <sodipodi:namedview
     pagecolor="#ffffff"
     bordercolor="#666666"
     borderopacity="1"
     objecttolerance="10"
     gridtolerance="10"
     guidetolerance="10"
     inkscape:pageopacity="0"
     inkscape:pageshadow="2"
     inkscape:window-width="1366"
     inkscape:window-height="705"
     id="namedview30"
     showgrid="false"
     inkscape:zoom="0.22208281"
     inkscape:cx="774.5339"
     inkscape:cy="531.33333"
     inkscape:window-x="0"
     inkscape:window-y="30"
     inkscape:window-maximized="1"
     inkscape:current-layer="svg28" />
  <metadata
     id="metadata2">
Created by potrace 1.15, written by Peter Selinger 2001-2017
<rdf:RDF>
  <cc:Work
     rdf:about="">
    <dc:format>image/svg+xml</dc:format>
    <dc:type
       rdf:resource="http://purl.org/dc/dcmitype/StillImage" />
    <dc:title></dc:title>
  </cc:Work>
</rdf:RDF>
</metadata>
  <g
     transform="translate(0.000000,797.000000) scale(0.100000,-0.100000)"
     fill="#000000"
     stroke="none"
     id="g26"
     style="fill:#000080">
    <path
       d="M 2890,4428 515,2525 l 711,-3 711,-2 1276,957 c 701,527 1771,1330 2376,1785 l 1101,826 602,-481 c 1185,-945 1940,-1541 1848,-1457 -25,22 -44,45 -42,51 1,6 3,26 4,45 l 1,34 46,-37 c 25,-21 42,-32 38,-26 -9,15 -887,758 -1797,1522 l -704,591 h -711 -710 z"
       id="path4"
       style="fill:#000080"
       inkscape:connector-curvature="0" />
    <path
       d="M9065 5690 c10 -11 20 -20 23 -20 3 0 -3 9 -13 20 -10 11 -20 20 -23 20 -3 0 3 -9 13 -20z"
       id="path12"
       style="fill:#000080" />
    <path
       d="M9040 5606 c0 -2 8 -10 18 -17 15 -13 16 -12 3 4 -13 16 -21 21 -21 13z"
       id="path14"
       style="fill:#000080" />
    <path
       d="M11210 4806 c0 -2 26 -23 58 -46 l57 -42 -50 46 c-45 40 -65 54 -65 42z"
       id="path20"
       style="fill:#000080" />
  </g>
  <flowRoot
     xml:space="preserve"
     id="flowRoot839"
     style="fill:black;fill-opacity:1;stroke:none;font-family:sans-serif;font-style:normal;font-weight:normal;font-size:40px;line-height:1.25;letter-spacing:0px;word-spacing:0px"><flowRegion
       id="flowRegion841"><rect
         id="rect843"
         width="1643.5311"
         height="265.66666"
         x="202.62712"
         y="634.89832" /></flowRegion><flowPara
       id="flowPara845"></flowPara></flowRoot>  <g
     aria-label="Mi Casa 
Prefabricada"
     transform="matrix(0.75000002,0,0,0.75000002,-42.09322,-122.59746)"
     style="font-style:normal;font-weight:normal;font-size:40px;line-height:1.25;font-family:sans-serif;letter-spacing:0px;word-spacing:0px;fill:#000080;fill-opacity:1;stroke:none"
     id="flowRoot847">
    <path
       d="m 733.45244,728.36718 h 31.72 v -77.13333 l 29.98667,77.13333 h 11.78667 l 30.33333,-77.13333 v 77.13333 h 35.36 V 604.43385 h -45.41334 l -23.74666,66.04 -23.74667,-66.04 h -46.28 z"
       style="font-style:normal;font-variant:normal;font-weight:bold;font-stretch:normal;font-size:173.33332825px;line-height:1;font-family:Graphik;-inkscape-font-specification:'Graphik Bold';text-align:center;letter-spacing:-3.3599999px;text-anchor:middle;fill:#000080"
       id="path1018" />
    <path
       d="m 891.36286,728.36718 h 31.02666 v -90.65333 h -31.02666 z m 15.42666,-99.31999 c 9.70667,0 17.16,-6.76 17.16,-15.94667 0,-9.18667 -7.45333,-16.12 -17.16,-16.12 -9.70667,0 -16.98666,6.93333 -16.98666,16.12 0,9.18667 7.27999,15.94667 16.98666,15.94667 z"
       style="font-style:normal;font-variant:normal;font-weight:bold;font-stretch:normal;font-size:173.33332825px;line-height:1;font-family:Graphik;-inkscape-font-specification:'Graphik Bold';text-align:center;letter-spacing:-3.3599999px;text-anchor:middle;fill:#000080"
       id="path1020" />
    <path
       d="m 1030.102,730.44718 c 32.0667,0 55.2934,-16.64 57.72,-48.70666 h -35.36 c -1.7333,13.69333 -10.5733,20.28 -23.0533,20.28 -16.9867,0 -26.52,-12.65334 -26.52,-35.01333 v -1.38667 c 0,-22.53333 10.0533,-35.01333 26,-35.01333 12.48,0 19.4133,6.93333 20.8,19.58666 h 36.5733 c -2.9466,-32.76 -25.3066,-47.66666 -57.5466,-47.66666 -36.22671,0 -63.26671,25.13333 -63.26671,63.26666 v 1.38667 c 0,37.96 21.32,63.26666 64.65331,63.26666 z"
       style="font-style:normal;font-variant:normal;font-weight:bold;font-stretch:normal;font-size:173.33332825px;line-height:1;font-family:Graphik;-inkscape-font-specification:'Graphik Bold';text-align:center;letter-spacing:-3.3599999px;text-anchor:middle;fill:#000080"
       id="path1022" />
    <path
       d="m 1123.917,730.44718 c 14.56,0 22.5333,-6.06666 26.8667,-12.65333 v 10.57333 h 30.16 v -58.75999 c 0,-24.09334 -15.9467,-34.32 -40.9067,-34.32 -24.7867,0 -41.9467,10.74666 -43.3333,32.58666 h 29.12 c 0.6933,-5.72 3.8133,-10.74666 12.3066,-10.74666 9.88,0 11.96,5.72 11.96,14.38666 v 2.08 h -8.6666 c -30.16,0 -48.1867,8.32 -48.1867,29.64 0,19.24 14.3867,27.21333 30.68,27.21333 z m 10.7467,-20.97333 c -7.28,0 -10.7467,-3.29333 -10.7467,-8.49333 0,-7.45334 5.5467,-9.88 18.0267,-9.88 h 8.1466 v 5.54666 c 0,7.8 -6.5866,12.82667 -15.4266,12.82667 z"
       style="font-style:normal;font-variant:normal;font-weight:bold;font-stretch:normal;font-size:173.33332825px;line-height:1;font-family:Graphik;-inkscape-font-specification:'Graphik Bold';text-align:center;letter-spacing:-3.3599999px;text-anchor:middle;fill:#000080"
       id="path1024" />
    <path
       d="m 1230.8187,730.44718 c 25.1333,0 41.08,-9.70666 41.08,-31.2 0,-19.41333 -12.1334,-26 -37.2667,-29.11999 -11.0933,-1.38667 -15.2533,-3.12 -15.2533,-7.45334 0,-4.16 3.4666,-7.10666 10.2266,-7.10666 7.1067,0 10.4,2.94666 11.6134,9.01333 h 28.08 c -2.08,-21.66667 -17.68,-29.29333 -40.04,-29.29333 -20.9734,0 -38.8267,9.70666 -38.8267,29.81333 0,18.89333 10.2267,26 34.4933,29.12 12.48,1.73333 16.8134,3.81333 16.8134,8.14666 0,4.50667 -3.4667,7.45334 -11.0934,7.45334 -8.84,0 -11.7866,-3.64 -12.8266,-10.22667 h -28.6 c 0.6933,20.10667 15.7733,30.85333 41.6,30.85333 z"
       style="font-style:normal;font-variant:normal;font-weight:bold;font-stretch:normal;font-size:173.33332825px;line-height:1;font-family:Graphik;-inkscape-font-specification:'Graphik Bold';text-align:center;letter-spacing:-3.3599999px;text-anchor:middle;fill:#000080"
       id="path1026" />
    <path
       d="m 1306.7803,730.44718 c 14.56,0 22.5334,-6.06666 26.8667,-12.65333 v 10.57333 h 30.16 v -58.75999 c 0,-24.09334 -15.9467,-34.32 -40.9067,-34.32 -24.7866,0 -41.9466,10.74666 -43.3333,32.58666 h 29.12 c 0.6933,-5.72 3.8133,-10.74666 12.3067,-10.74666 9.88,0 11.96,5.72 11.96,14.38666 v 2.08 h -8.6667 c -30.16,0 -48.1867,8.32 -48.1867,29.64 0,19.24 14.3867,27.21333 30.68,27.21333 z m 10.7467,-20.97333 c -7.28,0 -10.7467,-3.29333 -10.7467,-8.49333 0,-7.45334 5.5467,-9.88 18.0267,-9.88 h 8.1467 v 5.54666 c 0,7.8 -6.5867,12.82667 -15.4267,12.82667 z"
       style="font-style:normal;font-variant:normal;font-weight:bold;font-stretch:normal;font-size:173.33332825px;line-height:1;font-family:Graphik;-inkscape-font-specification:'Graphik Bold';text-align:center;letter-spacing:-3.3599999px;text-anchor:middle;fill:#000080"
       id="path1028" />
    <path
       d="m 524.33943,901.7005 h 35.36 v -41.77334 h 13.34666 c 30.68,0 48.18667,-14.04 48.18667,-40.03999 v -0.69334 c 0,-26.34666 -15.77333,-41.42666 -49.74667,-41.42666 h -47.14666 z m 35.36,-66.04 v -31.2 h 10.4 c 11.09333,0 17.33333,4.33333 17.33333,14.90667 v 0.69333 c 0,10.22667 -6.06667,15.6 -17.50667,15.6 z"
       style="font-style:normal;font-variant:normal;font-weight:bold;font-stretch:normal;font-size:173.33332825px;line-height:1;font-family:Graphik;-inkscape-font-specification:'Graphik Bold';text-align:center;letter-spacing:-3.3599999px;text-anchor:middle;fill:#000080"
       id="path1030" />
    <path
       d="m 631.27901,901.7005 h 31.02667 v -42.98667 c 0,-14.56 10.4,-20.45333 29.29333,-19.93333 v -28.94667 c -14.04,-0.17333 -23.57333,5.72 -29.29333,19.24 v -18.02666 h -31.02667 z"
       style="font-style:normal;font-variant:normal;font-weight:bold;font-stretch:normal;font-size:173.33332825px;line-height:1;font-family:Graphik;-inkscape-font-specification:'Graphik Bold';text-align:center;letter-spacing:-3.3599999px;text-anchor:middle;fill:#000080"
       id="path1032" />
    <path
       d="m 745.41735,903.7805 c 27.38666,0 43.16,-11.61334 45.93333,-32.06667 h -29.12 c -1.21333,6.06667 -5.54666,10.74667 -15.77333,10.74667 -11.09333,0 -18.02667,-6.93334 -18.89333,-18.89334 h 63.78666 v -8.14666 c 0,-32.58667 -21.32,-46.8 -46.10666,-46.8 -27.38667,0 -49.05334,18.37333 -49.05334,47.49333 v 1.38667 c 0,29.64 20.8,46.28 49.22667,46.28 z m -17.50667,-57.72 c 1.56,-10.92 7.97334,-16.98667 17.33334,-16.98667 10.05333,0 15.42666,6.06667 15.94666,16.98667 z"
       style="font-style:normal;font-variant:normal;font-weight:bold;font-stretch:normal;font-size:173.33332825px;line-height:1;font-family:Graphik;-inkscape-font-specification:'Graphik Bold';text-align:center;letter-spacing:-3.3599999px;text-anchor:middle;fill:#000080"
       id="path1034" />
    <path
       d="m 805.95777,901.7005 h 30.85333 v -69.50667 h 18.37333 V 811.04717 H 836.8111 v -7.97334 c 0,-5.89333 3.12,-9.88 10.4,-9.88 3.46666,0 6.24,0.52 8.49333,1.21334 V 771.7005 c -4.16,-1.04 -8.49333,-1.90667 -14.21333,-1.90667 -21.49333,0 -35.53333,10.74667 -35.53333,33.28 v 7.97334 h -11.44 v 21.14666 h 11.44 z"
       style="font-style:normal;font-variant:normal;font-weight:bold;font-stretch:normal;font-size:173.33332825px;line-height:1;font-family:Graphik;-inkscape-font-specification:'Graphik Bold';text-align:center;letter-spacing:-3.3599999px;text-anchor:middle;fill:#000080"
       id="path1036" />
    <path
       d="m 888.73631,903.7805 c 14.56,0 22.53333,-6.06667 26.86667,-12.65334 v 10.57334 h 30.16 v -58.76 c 0,-24.09333 -15.94667,-34.32 -40.90667,-34.32 -24.78666,0 -41.94666,10.74667 -43.33333,32.58666 h 29.12 c 0.69333,-5.72 3.81333,-10.74666 12.30666,-10.74666 9.88,0 11.96,5.72 11.96,14.38666 v 2.08 h -8.66666 c -30.16,0 -48.18667,8.32 -48.18667,29.64 0,19.24 14.38667,27.21334 30.68,27.21334 z m 10.74667,-20.97334 c -7.28,0 -10.74667,-3.29333 -10.74667,-8.49333 0,-7.45333 5.54667,-9.88 18.02667,-9.88 h 8.14666 v 5.54667 c 0,7.8 -6.58666,12.82666 -15.42666,12.82666 z"
       style="font-style:normal;font-variant:normal;font-weight:bold;font-stretch:normal;font-size:173.33332825px;line-height:1;font-family:Graphik;-inkscape-font-specification:'Graphik Bold';text-align:center;letter-spacing:-3.3599999px;text-anchor:middle;fill:#000080"
       id="path1038" />
    <path
       d="m 1019.2113,903.7805 c 21.32,0 38.48,-15.6 38.48,-46.8 v -1.38667 c 0,-31.02666 -17.16,-46.97333 -38.3067,-46.97333 -13.6933,0 -23.05329,7.28 -28.25329,15.94667 V 771.1805 h -31.02667 v 130.52 h 31.02667 v -14.04 c 4.50666,9.70666 14.55999,16.12 28.07999,16.12 z m -10.92,-23.74667 c -11.26666,0 -18.02666,-7.8 -18.02666,-23.22667 v -1.38666 c 0,-15.25334 6.76,-23.4 18.02666,-23.4 10.92,0 17.8533,7.62666 17.8533,23.57333 v 1.38667 c 0,14.90666 -6.24,23.05333 -17.8533,23.05333 z"
       style="font-style:normal;font-variant:normal;font-weight:bold;font-stretch:normal;font-size:173.33332825px;line-height:1;font-family:Graphik;-inkscape-font-specification:'Graphik Bold';text-align:center;letter-spacing:-3.3599999px;text-anchor:middle;fill:#000080"
       id="path1040" />
    <path
       d="m 1068.1248,901.7005 h 31.0267 v -42.98667 c 0,-14.56 10.4,-20.45333 29.2933,-19.93333 v -28.94667 c -14.04,-0.17333 -23.5733,5.72 -29.2933,19.24 v -18.02666 h -31.0267 z"
       style="font-style:normal;font-variant:normal;font-weight:bold;font-stretch:normal;font-size:173.33332825px;line-height:1;font-family:Graphik;-inkscape-font-specification:'Graphik Bold';text-align:center;letter-spacing:-3.3599999px;text-anchor:middle;fill:#000080"
       id="path1042" />
    <path
       d="m 1139.7721,901.7005 h 31.0267 v -90.65333 h -31.0267 z m 15.4267,-99.32 c 9.7067,0 17.16,-6.76 17.16,-15.94667 0,-9.18666 -7.4533,-16.12 -17.16,-16.12 -9.7067,0 -16.9867,6.93334 -16.9867,16.12 0,9.18667 7.28,15.94667 16.9867,15.94667 z"
       style="font-style:normal;font-variant:normal;font-weight:bold;font-stretch:normal;font-size:173.33332825px;line-height:1;font-family:Graphik;-inkscape-font-specification:'Graphik Bold';text-align:center;letter-spacing:-3.3599999px;text-anchor:middle;fill:#000080"
       id="path1044" />
    <path
       d="m 1229.4785,903.7805 c 29.2934,0 44.72,-14.90667 45.5867,-37.78667 h -27.9067 c -1.04,9.88 -7.1066,15.08 -15.7733,15.08 -11.7867,0 -17.8533,-8.14667 -17.8533,-23.92 v -1.38667 c 0,-15.25333 6.4133,-23.05333 17.3333,-23.05333 9.0133,0 13.1733,4.68 14.56,13.17333 h 29.12 c -1.7333,-27.55999 -22.1867,-37.26666 -44.3733,-37.26666 -26.6933,0 -48.36,17.33333 -48.36,47.49333 v 1.38667 c 0,30.50666 20.6267,46.28 47.6666,46.28 z"
       style="font-style:normal;font-variant:normal;font-weight:bold;font-stretch:normal;font-size:173.33332825px;line-height:1;font-family:Graphik;-inkscape-font-specification:'Graphik Bold';text-align:center;letter-spacing:-3.3599999px;text-anchor:middle;fill:#000080"
       id="path1046" />
    <path
       d="m 1311.0248,903.7805 c 14.56,0 22.5333,-6.06667 26.8667,-12.65334 v 10.57334 h 30.16 v -58.76 c 0,-24.09333 -15.9467,-34.32 -40.9067,-34.32 -24.7867,0 -41.9467,10.74667 -43.3333,32.58666 h 29.12 c 0.6933,-5.72 3.8133,-10.74666 12.3066,-10.74666 9.88,0 11.96,5.72 11.96,14.38666 v 2.08 h -8.6666 c -30.16,0 -48.1867,8.32 -48.1867,29.64 0,19.24 14.3867,27.21334 30.68,27.21334 z m 10.7467,-20.97334 c -7.28,0 -10.7467,-3.29333 -10.7467,-8.49333 0,-7.45333 5.5467,-9.88 18.0267,-9.88 h 8.1466 v 5.54667 c 0,7.8 -6.5866,12.82666 -15.4266,12.82666 z"
       style="font-style:normal;font-variant:normal;font-weight:bold;font-stretch:normal;font-size:173.33332825px;line-height:1;font-family:Graphik;-inkscape-font-specification:'Graphik Bold';text-align:center;letter-spacing:-3.3599999px;text-anchor:middle;fill:#000080"
       id="path1048" />
    <path
       d="m 1416.0198,903.7805 c 13.6933,0 23.7467,-7.45334 28.2533,-16.81334 v 14.73334 h 31.0267 v -130.52 h -31.0267 v 52.69333 c -5.2,-9.18666 -13.6933,-15.25333 -27.9066,-15.25333 -21.4934,0 -38.48,16.46667 -38.48,47.32 v 1.38666 c 0,31.37334 17.16,46.45334 38.1333,46.45334 z m 10.92,-23.74667 c -10.7467,0 -17.5067,-7.8 -17.5067,-23.05333 v -1.38667 c 0,-15.77333 6.24,-23.57333 17.8534,-23.57333 11.44,0 17.8533,8.14666 17.8533,23.4 v 1.38666 c 0,15.42667 -6.9333,23.22667 -18.2,23.22667 z"
       style="font-style:normal;font-variant:normal;font-weight:bold;font-stretch:normal;font-size:173.33332825px;line-height:1;font-family:Graphik;-inkscape-font-specification:'Graphik Bold';text-align:center;letter-spacing:-3.3599999px;text-anchor:middle;fill:#000080"
       id="path1050" />
    <path
       d="m 1515.8934,903.7805 c 14.56,0 22.5333,-6.06667 26.8667,-12.65334 v 10.57334 h 30.16 v -58.76 c 0,-24.09333 -15.9467,-34.32 -40.9067,-34.32 -24.7867,0 -41.9467,10.74667 -43.3333,32.58666 h 29.12 c 0.6933,-5.72 3.8133,-10.74666 12.3066,-10.74666 9.88,0 11.96,5.72 11.96,14.38666 v 2.08 h -8.6666 c -30.16,0 -48.1867,8.32 -48.1867,29.64 0,19.24 14.3867,27.21334 30.68,27.21334 z m 10.7467,-20.97334 c -7.28,0 -10.7467,-3.29333 -10.7467,-8.49333 0,-7.45333 5.5467,-9.88 18.0267,-9.88 h 8.1466 v 5.54667 c 0,7.8 -6.5866,12.82666 -15.4266,12.82666 z"
       style="font-style:normal;font-variant:normal;font-weight:bold;font-stretch:normal;font-size:173.33332825px;line-height:1;font-family:Graphik;-inkscape-font-specification:'Graphik Bold';text-align:center;letter-spacing:-3.3599999px;text-anchor:middle;fill:#000080"
       id="path1052" />
  </g>
  <flowRoot
     xml:space="preserve"
     id="flowRoot855"
     style="fill:black;fill-opacity:1;stroke:none;font-family:sans-serif;font-style:normal;font-weight:normal;font-size:40px;line-height:1.25;letter-spacing:0px;word-spacing:0px"><flowRegion
       id="flowRegion857"><rect
         id="rect859"
         width="162.1017"
         height="54.033897"
         x="76.548019"
         y="589.87006" /></flowRegion><flowPara
       id="flowPara861"></flowPara></flowRoot></svg>
